# xmcd
#
# Track frame offsets:
#	150
#	17920
#	33732
#	49782
#	66465
#	81985
#	105785
#	121122
#	135305
#	150447
#	167882
#	188997
#
# Disc length: 2727 seconds
#
# Revision: 0
# Processed by: cddbd v1.5.2PL0 Copyright (c) Steve Scherf et al.
# Submitted via: EasyCDDAExtractor 15.3.0.1
#
DISCID=980aa50c
DTITLE=Harold Melvin and The Blue Notes - Don't Leave Me This Way
DYEAR=1997
DGENRE=Soul
TTITLE0=Don't Leave Me This Way
TTITLE1=Satisfaction Guaranteed (or Take Your Love Back)
TTITLE2=The Love I Lost
TTITLE3=Wake Up Everybody
TTITLE4=Hope That We Can Be Together Soon
TTITLE5=You know how to make me feel so good
TTITLE6=Be for Real
TTITLE7=Bad Luck
TTITLE8=Where Are All My Friends
TTITLE9=Tell the World how I feel aboutcha Baby
TTITLE10=To Be True
TTITLE11=If You Don't Know Me by Now
EXTD=
EXTT0=
EXTT1=
EXTT2=
EXTT3=
EXTT4=
EXTT5=
EXTT6=
EXTT7=
EXTT8=
EXTT9=
EXTT10=
EXTT11=
PLAYORDER=
